<svg width="134" height="40" viewBox="0 0 134 40" fill="none" xmlns="http://www.w3.org/2000/svg">
<path d="M88.9072 8.25V27H85.9775V8.25H88.9072ZM88.3945 19.9077L87.4424 19.8955C87.4505 18.984 87.5767 18.1418 87.8208 17.3687C88.0731 16.5955 88.423 15.9242 88.8706 15.3545C89.3263 14.7767 89.8716 14.3332 90.5063 14.0239C91.1411 13.7065 91.8451 13.5479 92.6182 13.5479C93.2692 13.5479 93.8551 13.6374 94.376 13.8164C94.9049 13.9954 95.3607 14.2843 95.7432 14.6831C96.1257 15.0737 96.4146 15.5864 96.6099 16.2212C96.8133 16.8478 96.915 17.6128 96.915 18.5161V27H93.9609V18.4917C93.9609 17.8569 93.8674 17.3524 93.6802 16.978C93.5011 16.6037 93.2367 16.3351 92.8867 16.1724C92.5368 16.0015 92.1095 15.916 91.605 15.916C91.076 15.916 90.6081 16.0218 90.2012 16.2334C89.8024 16.445 89.4688 16.7339 89.2002 17.1001C88.9316 17.4663 88.7282 17.8895 88.5898 18.3696C88.4596 18.8498 88.3945 19.3625 88.3945 19.9077ZM105.716 27.2441C104.74 27.2441 103.857 27.0854 103.067 26.7681C102.286 26.4425 101.619 25.9909 101.065 25.4131C100.52 24.8353 100.101 24.1558 99.8081 23.3745C99.5151 22.5933 99.3687 21.751 99.3687 20.8477V20.3594C99.3687 19.3258 99.5192 18.39 99.8203 17.5518C100.121 16.7135 100.541 15.9974 101.078 15.4033C101.615 14.8011 102.25 14.3413 102.982 14.0239C103.714 13.7065 104.508 13.5479 105.362 13.5479C106.306 13.5479 107.132 13.7065 107.84 14.0239C108.548 14.3413 109.134 14.7889 109.598 15.3667C110.07 15.9364 110.42 16.6159 110.648 17.4053C110.884 18.1947 111.002 19.0654 111.002 20.0176V21.2749H100.797V19.1631H108.097V18.9312C108.08 18.4022 107.975 17.9058 107.779 17.4419C107.592 16.978 107.303 16.6037 106.913 16.3188C106.522 16.034 106.001 15.8916 105.35 15.8916C104.862 15.8916 104.426 15.9974 104.044 16.209C103.67 16.4124 103.356 16.7095 103.104 17.1001C102.852 17.4907 102.656 17.9627 102.518 18.5161C102.388 19.0614 102.323 19.6758 102.323 20.3594V20.8477C102.323 21.4255 102.4 21.9626 102.555 22.459C102.717 22.9473 102.953 23.3745 103.263 23.7407C103.572 24.1069 103.946 24.3958 104.386 24.6074C104.825 24.8109 105.326 24.9126 105.887 24.9126C106.595 24.9126 107.226 24.7702 107.779 24.4854C108.333 24.2005 108.813 23.7977 109.22 23.2769L110.77 24.7783C110.485 25.1934 110.115 25.5921 109.659 25.9746C109.203 26.349 108.646 26.6541 107.987 26.8901C107.336 27.1261 106.579 27.2441 105.716 27.2441ZM119.12 27.2441C118.143 27.2441 117.26 27.0854 116.471 26.7681C115.689 26.4425 115.022 25.9909 114.469 25.4131C113.924 24.8353 113.504 24.1558 113.211 23.3745C112.918 22.5933 112.772 21.751 112.772 20.8477V20.3594C112.772 19.3258 112.923 18.39 113.224 17.5518C113.525 16.7135 113.944 15.9974 114.481 15.4033C115.018 14.8011 115.653 14.3413 116.385 14.0239C117.118 13.7065 117.911 13.5479 118.766 13.5479C119.71 13.5479 120.536 13.7065 121.244 14.0239C121.952 14.3413 122.538 14.7889 123.001 15.3667C123.473 15.9364 123.823 16.6159 124.051 17.4053C124.287 18.1947 124.405 19.0654 124.405 20.0176V21.2749H114.2V19.1631H121.5V18.9312C121.484 18.4022 121.378 17.9058 121.183 17.4419C120.995 16.978 120.707 16.6037 120.316 16.3188C119.925 16.034 119.404 15.8916 118.753 15.8916C118.265 15.8916 117.83 15.9974 117.447 16.209C117.073 16.4124 116.76 16.7095 116.507 17.1001C116.255 17.4907 116.06 17.9627 115.921 18.5161C115.791 19.0614 115.726 19.6758 115.726 20.3594V20.8477C115.726 21.4255 115.803 21.9626 115.958 22.459C116.121 22.9473 116.357 23.3745 116.666 23.7407C116.975 24.1069 117.35 24.3958 117.789 24.6074C118.229 24.8109 118.729 24.9126 119.291 24.9126C119.999 24.9126 120.629 24.7702 121.183 24.4854C121.736 24.2005 122.216 23.7977 122.623 23.2769L124.173 24.7783C123.889 25.1934 123.518 25.5921 123.062 25.9746C122.607 26.349 122.049 26.6541 121.39 26.8901C120.739 27.1261 119.982 27.2441 119.12 27.2441ZM132.755 13.792V15.9404H125.309V13.792H132.755ZM127.457 10.5571H130.399V23.3501C130.399 23.757 130.456 24.0703 130.57 24.29C130.692 24.5016 130.859 24.644 131.07 24.7173C131.282 24.7905 131.53 24.8271 131.815 24.8271C132.018 24.8271 132.214 24.8149 132.401 24.7905C132.588 24.7661 132.739 24.7417 132.853 24.7173L132.865 26.9634C132.621 27.0366 132.336 27.1017 132.01 27.1587C131.693 27.2157 131.327 27.2441 130.912 27.2441C130.236 27.2441 129.638 27.1261 129.117 26.8901C128.596 26.646 128.189 26.2513 127.896 25.7061C127.604 25.1608 127.457 24.4365 127.457 23.5332V10.5571Z" fill="#BDBDBD"/>
<path d="M79.5889 22.4224C79.5889 22.0562 79.5319 21.7306 79.418 21.4458C79.3122 21.161 79.1209 20.9006 78.8442 20.6646C78.5675 20.4285 78.1769 20.2007 77.6724 19.981C77.1759 19.7531 76.5412 19.5212 75.7681 19.2852C74.9217 19.0247 74.1405 18.7358 73.4243 18.4185C72.7163 18.0929 72.0978 17.7186 71.5688 17.2954C71.0399 16.8641 70.6289 16.3717 70.3359 15.8184C70.043 15.2568 69.8965 14.6099 69.8965 13.8774C69.8965 13.1532 70.047 12.494 70.3481 11.8999C70.6574 11.3058 71.0928 10.7931 71.6543 10.3618C72.224 9.92236 72.8953 9.58464 73.6685 9.34863C74.4416 9.10449 75.2961 8.98242 76.2319 8.98242C77.5503 8.98242 78.6855 9.22656 79.6377 9.71484C80.598 10.2031 81.3345 10.8582 81.8472 11.6802C82.368 12.5021 82.6284 13.4095 82.6284 14.4023H79.5889C79.5889 13.8164 79.4627 13.2996 79.2104 12.8521C78.9663 12.3963 78.592 12.0382 78.0874 11.7778C77.591 11.5174 76.9603 11.3872 76.1953 11.3872C75.471 11.3872 74.8688 11.4971 74.3887 11.7168C73.9085 11.9365 73.5505 12.2336 73.3145 12.6079C73.0785 12.9823 72.9604 13.4054 72.9604 13.8774C72.9604 14.2111 73.0378 14.5163 73.1924 14.793C73.347 15.0615 73.583 15.3138 73.9004 15.5498C74.2178 15.7777 74.6165 15.9933 75.0967 16.1968C75.5768 16.4002 76.1424 16.5955 76.7935 16.7827C77.7782 17.0757 78.6367 17.4012 79.3691 17.7593C80.1016 18.1092 80.7119 18.508 81.2002 18.9556C81.6885 19.4032 82.0547 19.9118 82.2988 20.4814C82.543 21.043 82.665 21.6818 82.665 22.3979C82.665 23.1466 82.5145 23.8221 82.2134 24.4243C81.9123 25.0184 81.481 25.527 80.9194 25.9502C80.366 26.3652 79.6987 26.6867 78.9175 26.9146C78.1444 27.1343 77.2817 27.2441 76.3296 27.2441C75.4751 27.2441 74.6328 27.1302 73.8027 26.9023C72.9808 26.6745 72.2321 26.3286 71.5566 25.8647C70.8812 25.3927 70.3441 24.8068 69.9453 24.1069C69.5465 23.3989 69.3472 22.5729 69.3472 21.6289H72.4111C72.4111 22.2067 72.5088 22.6991 72.7041 23.106C72.9076 23.5129 73.1883 23.8465 73.5464 24.1069C73.9045 24.3592 74.3195 24.5464 74.7915 24.6685C75.2716 24.7905 75.7843 24.8516 76.3296 24.8516C77.0457 24.8516 77.6439 24.7498 78.124 24.5464C78.6123 24.3429 78.9785 24.0581 79.2227 23.6919C79.4668 23.3257 79.5889 22.9025 79.5889 22.4224Z" fill="#56CCF2"/>
<path d="M61.5015 9.22656V27H58.4619V9.22656H61.5015ZM67.0801 9.22656V11.668H52.9321V9.22656H67.0801Z" fill="#56CCF2"/>
<path opacity="0.5" d="M39.9902 0.270225L30.2035 36.8334C30.1537 36.9993 29.9547 37.0491 29.8385 36.9329L23.2864 30.3771L28.1964 12.0541C28.2461 11.8881 28.0968 11.7387 27.931 11.7885L9.6181 16.7012L3.09913 10.1786C2.98301 10.0624 3.03278 9.86327 3.19865 9.81348L39.7248 0.00467392C39.8907 -0.02852 40.04 0.120853 39.9902 0.270225Z" fill="#56CCF2"/>
<path opacity="0.5" d="M23.2861 30.3768L20.7648 39.8371C20.715 40.0031 20.516 40.0529 20.3998 39.9367L0.0632817 19.6054C-0.0528324 19.4892 -0.00306943 19.29 0.162808 19.2403L9.61781 16.7009L23.2861 30.3768Z" fill="#2F80ED"/>
<path d="M28.1957 12.0538L23.2857 30.3768L9.61743 16.7009L27.9303 11.7882C28.0962 11.7384 28.2454 11.8878 28.1957 12.0538Z" fill="#2D9CDB"/>
</svg>
