<svg width="152" height="190" viewBox="0 0 152 190" fill="none" xmlns="http://www.w3.org/2000/svg">
<path d="M75.1755 132.362C78.6111 132.169 81.2763 129.729 81.1255 126.908C80.0079 111.557 84.8472 97.0183 83.8939 81.5562C84.2795 73.5196 81.8172 73.7018 76.3798 74.0066C73.6625 74.159 74.4236 77.1223 73.7715 79.4203C70.8083 89.8076 67.1499 106.547 68.682 127.606C68.8302 130.424 71.7373 132.555 75.1755 132.362ZM76.3283 149.734C92.2133 148.858 102.762 138.21 101.927 126.732C101.187 116.546 101.808 106.276 103.772 96.2158C104.321 93.4157 102.009 90.8337 98.6157 90.4544C95.2016 90.0762 92.0241 92.0316 91.4743 94.8316C89.3631 105.636 88.6966 116.659 89.4893 127.589C89.8908 133.103 84.9214 139.044 75.9663 139.514C67.8426 139.869 60.8595 134.955 60.3948 128.553C59.6485 118.343 61.9128 96.588 61.3139 86.8744C60.0885 66.9982 60.2451 69.5381 54.7592 80.5924C46.6122 84.6903 54.3364 71.6705 50.3423 87.5509C47.6678 98.1843 47.1735 118.595 47.9574 129.41C48.8204 141.266 61.5469 150.384 76.3283 149.734ZM105.254 152.332C108.02 153.956 111.91 153.409 113.968 151.101C120.253 144.028 123.371 135.366 122.742 126.714C122.161 118.73 122.526 110.668 123.829 102.748C124.287 99.9382 121.902 97.4093 118.492 97.0971C113.238 96.645 111.641 100.641 111.48 101.621C110.069 110.199 109.676 118.931 110.304 127.572C110.766 133.921 108.577 140.017 103.965 145.202C101.917 147.51 102.494 150.701 105.254 152.332ZM77.5789 167.181C81.5792 167.044 85.5668 166.426 89.3927 165.459C92.7001 164.62 94.6223 161.756 93.6872 159.054C92.7471 156.357 89.3015 154.856 85.9934 155.682C83.1579 156.398 80.21 156.81 77.2194 156.961C57.6482 157.817 40.8075 145.882 39.6779 130.354C39.0939 122.306 39.1438 114.146 39.8319 106.103C40.071 103.28 37.4852 100.884 34.0558 100.756C29.6983 100.585 27.5764 103.654 27.404 105.633C26.6784 114.161 26.6238 122.705 27.2404 131.212C28.7684 152.194 51.35 168.332 77.5789 167.181ZM10.8375 145.013C11.726 147.72 15.1003 149.297 18.4636 148.483C21.7863 147.687 23.7617 144.845 22.8728 142.132C21.4079 137.647 19.7208 123.148 19.5001 118C18.4636 110 22.6158 92.5661 12.5 94.8316C4.00006 92.5 7.87845 119.693 8 122.5C8.20567 127.22 8.90089 139.099 10.8375 145.013ZM22.2724 163.726C35.6894 177.778 56.8321 185.589 78.8319 184.626C96.9374 183.79 113.382 177.379 125.284 166.465C136.779 155.915 142.557 142.434 141.541 128.494L141.328 123.925C141.278 121.101 138.451 118.9 135.011 119.011C134.951 119.01 134.886 119.014 134.824 119.018C131.474 119.205 128.824 121.552 128.874 124.323L129.101 129.353C129.914 140.508 125.292 151.298 116.09 159.737C106.481 168.554 93.0849 173.757 78.4672 174.404C60.4476 175.195 43.1282 168.799 32.1385 157.291C30.0417 155.092 26.1358 154.759 23.4063 156.531C20.6822 158.309 20.1733 161.532 22.2724 163.726Z" fill="#2D9CDB"/>
<path d="M77.2258 57.2437C73.7912 57.4555 71.1455 59.9106 71.3193 62.7297C72.5618 78.072 71.8602 93.589 68.4111 109.099C70.435 113.345 67.8692 114.597 73.3048 114.262C76.0213 114.094 79.8498 112.382 80.4833 110.08C83.6958 99.7795 85.4622 83.0089 83.7587 61.9628C83.5877 59.1456 80.6629 57.0318 77.2258 57.2437ZM75.9315 39.8813C60.0515 40.8455 49.5883 51.5509 50.5167 63.0221C51.3395 73.2022 49.6623 83.6668 48.972 93.9075C48.4449 96.7101 50.726 98.914 54.123 99.2744C57.5407 99.6334 61.1106 94.9295 61.6378 92.1269C62.6493 79.9523 62.6631 73.0313 62.9488 62.0955C62.5024 56.585 67.4242 50.6175 76.3767 50.0976C84.4986 49.6971 91.5226 54.5717 92.0394 60.9699C92.8688 71.1732 92.5243 92.9288 91.3576 102.586C87.3564 120.316 92.9876 107.584 97.4823 109.032C103.073 99.6775 99.3414 117.756 103.207 101.856C105.795 91.2095 105.343 70.8522 104.472 60.0434C103.512 48.1942 90.7097 39.1495 75.9315 39.8813ZM46.9805 37.445C44.2013 35.8366 40.3152 36.4048 38.2752 38.7244C32.0472 45.8308 28.9993 54.5083 29.699 63.1553C30.3445 71.1354 30.0454 79.1979 28.8064 87.1235C28.3709 89.9354 30.7766 92.4504 34.1902 92.7436C39.4488 93.1663 41.0129 89.1623 41.1658 88.1819C42.5073 79.5969 42.8301 70.865 42.1311 62.2287C41.6177 55.8837 43.7571 49.7761 48.3276 44.5667C50.3572 42.2477 49.7548 39.0602 46.9805 37.445ZM74.539 22.4441C70.5392 22.6032 66.5561 23.2436 62.7376 24.2324C59.4365 25.0889 57.5374 27.9633 58.4946 30.6594C59.4567 33.3509 62.9149 34.8322 66.2168 33.9884C69.0469 33.2569 71.9918 32.8278 74.9816 32.6605C94.5485 31.6953 111.488 43.5346 112.744 59.0532C113.394 67.0971 113.41 75.2553 112.788 83.3009C112.571 86.1248 115.177 88.5059 118.608 88.6145C122.967 88.7619 125.065 85.6811 125.221 83.7017C125.877 75.1714 125.863 66.6282 125.177 58.1266C123.478 37.1571 100.762 21.1475 74.539 22.4441ZM141.47 44.2362C140.559 41.5351 137.171 39.9769 133.814 40.8092C130.498 41.624 128.545 44.476 129.456 47.1835C130.958 51.6601 133.552 72.3538 133.814 77.5C134.178 84.6196 131.814 97 138 97C144.186 97 144.5 83.3009 144.5 73C144.256 68.2816 143.455 50.1384 141.47 44.2362ZM129.881 25.5901C116.348 11.6159 95.139 3.92438 73.144 5.00942C55.0429 5.94617 38.6483 12.4477 26.8332 23.4263C15.4223 34.0384 9.75308 47.5491 10.8827 61.4813L11.133 66.0478C11.2056 68.871 14.0515 71.0563 17.491 70.9253C17.5509 70.9259 17.6157 70.9219 17.6779 70.9181C21.0269 70.7116 23.6576 68.3508 23.5857 65.5809L23.3173 60.5525C22.414 49.4041 26.9485 38.5905 36.0835 30.1012C45.6219 21.2328 58.9775 15.9557 73.5919 15.2276C91.6074 14.3366 108.981 20.6343 120.066 32.079C122.181 34.2662 126.09 34.5779 128.806 32.7907C131.515 30.9975 131.998 27.773 129.881 25.5901Z" fill="#2D9CDB"/>
</svg>
